<svg width="20" height="22" viewBox="0 0 20 22" fill="none" xmlns="http://www.w3.org/2000/svg">
<path fill-rule="evenodd" clip-rule="evenodd" d="M5.11367 1.33104C5.19597 0.85095 5.61221 0.5 6.09929 0.5H13.8993C14.3864 0.5 14.8026 0.85095 14.8849 1.33104L15.4849 4.83104L13.5137 5.16896L13.0561 2.5H6.94245L6.48492 5.16896L4.51367 4.83104L5.11367 1.33104Z" fill="white"/>
<path fill-rule="evenodd" clip-rule="evenodd" d="M0 5C0 4.44772 0.447715 4 1 4H19C19.5523 4 20 4.44772 20 5C20 5.55228 19.5523 6 19 6H1C0.447715 6 0 5.55228 0 5Z" fill="white"/>
<path fill-rule="evenodd" clip-rule="evenodd" d="M2.77049 4.31603C2.95953 4.1144 3.2236 4 3.5 4H16.5C16.7764 4 17.0405 4.1144 17.2295 4.31603C17.4186 4.51767 17.5157 4.78856 17.4979 5.06438L16.4979 20.5644C16.464 21.0906 16.0273 21.5 15.5 21.5H4.5C3.97271 21.5 3.53602 21.0906 3.50208 20.5644L2.50208 5.06438C2.48428 4.78856 2.58144 4.51767 2.77049 4.31603ZM4.5666 6L5.43756 19.5H14.5624L15.4334 6H4.5666Z" fill="white"/>
<path fill-rule="evenodd" clip-rule="evenodd" d="M6.5 16.5C6.5 15.9477 6.94772 15.5 7.5 15.5H12.5C13.0523 15.5 13.5 15.9477 13.5 16.5C13.5 17.0523 13.0523 17.5 12.5 17.5H7.5C6.94772 17.5 6.5 17.0523 6.5 16.5Z" fill="white"/>
</svg>
