<svg width="250" height="250" viewBox="0 0 250 250" fill="none" xmlns="http://www.w3.org/2000/svg">
<path fill-rule="evenodd" clip-rule="evenodd" d="M147.525 12.2276C124.273 7.58334 100.154 10.24 78.4701 19.8337C56.7865 29.4274 38.5984 45.4892 26.3964 65.8197C14.1943 86.1502 8.5749 109.755 10.3075 133.403C12.0401 157.051 21.0401 179.585 36.075 197.92C51.11 216.255 71.4448 229.494 94.2952 235.825C117.146 242.156 141.394 241.269 163.721 233.285C186.048 225.302 205.361 210.612 219.016 191.227C232.671 171.843 240 148.711 240 125C240 122.239 242.239 120 245 120C247.761 120 250 122.239 250 125C250 150.773 242.033 175.916 227.191 196.986C212.349 218.056 191.356 234.023 167.088 242.701C142.82 251.379 116.463 252.343 91.6252 245.462C66.7879 238.581 44.6847 224.19 28.3424 204.261C12.0001 184.332 2.21751 159.838 0.334244 134.134C-1.54903 108.43 4.55907 82.772 17.8222 60.6736C31.0852 38.5752 50.8549 21.1168 74.424 10.6888C97.9932 0.260848 124.21 -2.62681 149.483 2.42125C152.191 2.96212 153.948 5.5958 153.407 8.30373C152.866 11.0117 150.233 12.7684 147.525 12.2276Z" fill="#D9D9D9"/>
</svg>
