<svg width="117" height="165" viewBox="0 0 117 165" fill="none" xmlns="http://www.w3.org/2000/svg">
<path d="M7.77393 128.111C18.4548 152.633 43.9697 160.807 55.8372 163.142H62.9577C62.9577 163.142 80.7591 161.391 91.4398 150.881C100.34 143.875 110.322 126.36 112.102 119.354C113.882 112.347 118.142 96.5834 112.801 80.8196C107.461 65.0556 93.9193 44.0371 93.9193 44.0371C93.9193 44.0371 97.4796 63.7736 97.4796 70.3103C97.4796 79.068 89.6596 101.838 89.6596 101.838C89.6596 101.838 93.9193 66.8072 79.6783 59.801C68.2981 52.7948 64.7378 40.534 64.7378 33.5278C64.7378 26.5216 64.7378 16.0124 74.3379 2C52.9764 3.75155 35.8224 28.2732 31.6149 35.2794C27.4075 42.2856 23.7949 66.8072 27.3552 82.5711C18.4545 70.3102 16.6744 52.7948 16.6744 52.7948C16.6744 52.7948 5.99376 73.2296 4.21364 79.0681C2.43352 84.3227 -1.09602 107.747 7.77393 128.111Z" fill="#FF0000" stroke="#FF0000" stroke-width="2.025"/>
<path d="M90.9411 140.296C84.2345 156.288 68.2134 161.619 60.7617 163.142H56.2907C56.2907 163.142 45.113 162 38.4065 155.146C32.8177 150.577 26.5503 139.154 25.4326 134.584C24.3148 130.015 21.6401 119.734 24.9933 109.454C33.2512 88.0759 36.8496 85.4649 36.8496 85.4649C36.8496 85.4649 34.614 95.069 34.614 102.6C34.614 108.311 39.5243 123.161 39.5243 123.161C39.5243 123.161 36.8496 100.315 45.7916 95.7458C52.9374 91.1765 55.1729 83.1803 55.1729 78.6111C55.1729 74.0418 55.1729 67.1879 49.1449 58.0494C62.558 59.1918 75.9711 79.7534 75.9711 79.7534C80.4422 87.7496 80.8814 100.315 78.6459 110.596C84.2347 102.6 85.3524 91.1765 85.3524 91.1765C85.3524 91.1765 92.0589 104.504 93.1767 108.311C94.2944 111.738 96.5107 127.015 90.9411 140.296Z" fill="#FA6338" stroke="#FA6338" stroke-width="2.025"/>
<path d="M39.5966 150.196C43.2852 159.258 52.0968 162.279 56.1953 163.142H58.6543C58.6543 163.142 64.802 162.495 68.4906 158.611C71.5645 156.022 75.0115 149.549 75.6263 146.959C76.2411 144.37 77.7122 138.544 75.8679 132.719C71.326 120.605 69.3469 119.125 69.3469 119.125C69.3469 119.125 70.5765 124.567 70.5765 128.835C70.5765 132.071 67.8758 140.486 67.8758 140.486C67.8758 140.486 69.3469 127.54 64.4288 124.951C60.4986 122.362 59.2691 117.83 59.2691 115.241C59.2691 112.652 59.2691 108.768 62.5845 103.59C55.2073 104.237 47.8301 115.889 47.8301 115.889C45.371 120.42 45.1294 127.54 46.359 133.366C43.2851 128.835 42.6704 122.362 42.6704 122.362C42.6704 122.362 38.9818 129.914 38.367 132.071C37.7523 134.013 36.5333 142.67 39.5966 150.196Z" fill="#FFC700" stroke="#FFC700" stroke-width="2.025"/>
<path d="M58.9641 164V44.037H5.56055H112.368" stroke="black" stroke-width="8.1"/>
<path d="M58.9641 164V44.037H5.56055H112.368" stroke="white" stroke-width="2.025"/>
</svg>
