<svg width="51" height="21" viewBox="0 0 51 21" fill="none" xmlns="http://www.w3.org/2000/svg">
<rect x="0.5" y="0.5" width="50" height="20" stroke="#FA6338"/>
<path d="M11.2273 9.55682V10.8068H6.13636V9.55682H11.2273ZM17.3082 16.1591C16.5582 16.1591 15.8897 16.0303 15.3026 15.7727C14.7192 15.5152 14.2552 15.1572 13.9105 14.6989C13.5696 14.2367 13.384 13.7008 13.3537 13.0909H14.7855C14.8158 13.4659 14.9446 13.7898 15.1719 14.0625C15.3991 14.3314 15.6965 14.5398 16.0639 14.6875C16.4313 14.8352 16.8385 14.9091 17.2855 14.9091C17.7855 14.9091 18.2287 14.822 18.6151 14.6477C19.0014 14.4735 19.3045 14.2311 19.5241 13.9205C19.7438 13.6098 19.8537 13.25 19.8537 12.8409C19.8537 12.4129 19.7476 12.036 19.5355 11.7102C19.3234 11.3807 19.0128 11.1231 18.6037 10.9375C18.1946 10.7519 17.6946 10.6591 17.1037 10.6591H16.1719V9.40909H17.1037C17.5658 9.40909 17.9711 9.32576 18.3196 9.15909C18.6719 8.99242 18.9465 8.75758 19.1435 8.45455C19.3442 8.15152 19.4446 7.79545 19.4446 7.38636C19.4446 6.99242 19.3575 6.64962 19.1832 6.35795C19.009 6.06629 18.7628 5.83901 18.4446 5.67614C18.1302 5.51326 17.759 5.43182 17.331 5.43182C16.9295 5.43182 16.5507 5.50568 16.1946 5.65341C15.8423 5.79735 15.5545 6.00758 15.331 6.28409C15.1075 6.55682 14.9863 6.88636 14.9673 7.27273H13.6037C13.6264 6.66288 13.8101 6.12879 14.1548 5.67045C14.4995 5.20833 14.9503 4.84848 15.5071 4.59091C16.0677 4.33333 16.6832 4.20455 17.3537 4.20455C18.0734 4.20455 18.6908 4.35038 19.206 4.64205C19.7211 4.92992 20.117 5.31061 20.3935 5.78409C20.67 6.25758 20.8082 6.76894 20.8082 7.31818C20.8082 7.97348 20.6359 8.5322 20.2912 8.99432C19.9503 9.45644 19.4863 9.77652 18.8991 9.95455V10.0455C19.634 10.1667 20.2079 10.4792 20.6207 10.983C21.0336 11.483 21.2401 12.1023 21.2401 12.8409C21.2401 13.4735 21.0677 14.0417 20.723 14.5455C20.3821 15.0455 19.9162 15.4394 19.3253 15.7273C18.7344 16.0152 18.062 16.1591 17.3082 16.1591ZM27.3594 16.1591C26.5033 16.1591 25.7741 15.9261 25.1719 15.4602C24.5696 14.9905 24.1094 14.3106 23.7912 13.4205C23.473 12.5265 23.3139 11.447 23.3139 10.1818C23.3139 8.92424 23.473 7.85038 23.7912 6.96023C24.1132 6.06629 24.5753 5.38447 25.1776 4.91477C25.7836 4.44129 26.5109 4.20455 27.3594 4.20455C28.2079 4.20455 28.9332 4.44129 29.5355 4.91477C30.1416 5.38447 30.6037 6.06629 30.9219 6.96023C31.2438 7.85038 31.4048 8.92424 31.4048 10.1818C31.4048 11.447 31.2457 12.5265 30.9276 13.4205C30.6094 14.3106 30.1491 14.9905 29.5469 15.4602C28.9446 15.9261 28.2154 16.1591 27.3594 16.1591ZM27.3594 14.9091C28.2079 14.9091 28.867 14.5 29.3366 13.6818C29.8063 12.8636 30.0412 11.697 30.0412 10.1818C30.0412 9.17424 29.9332 8.31629 29.7173 7.60795C29.5052 6.89962 29.1984 6.35985 28.7969 5.98864C28.3991 5.61742 27.92 5.43182 27.3594 5.43182C26.5185 5.43182 25.8613 5.84659 25.3878 6.67614C24.9143 7.50189 24.6776 8.67045 24.6776 10.1818C24.6776 11.1894 24.7836 12.0455 24.9957 12.75C25.2079 13.4545 25.5128 13.9905 25.9105 14.358C26.312 14.7254 26.795 14.9091 27.3594 14.9091ZM39.4957 13.8182V13.2045C39.4957 12.7803 39.5829 12.392 39.7571 12.0398C39.9351 11.6837 40.1927 11.3996 40.5298 11.1875C40.8707 10.9716 41.2836 10.8636 41.7685 10.8636C42.2609 10.8636 42.6738 10.9716 43.0071 11.1875C43.3404 11.3996 43.5923 11.6837 43.7628 12.0398C43.9332 12.392 44.0185 12.7803 44.0185 13.2045V13.8182C44.0185 14.2424 43.9313 14.6326 43.7571 14.9886C43.5866 15.3409 43.3329 15.625 42.9957 15.8409C42.6624 16.053 42.2533 16.1591 41.7685 16.1591C41.276 16.1591 40.8613 16.053 40.5241 15.8409C40.187 15.625 39.9313 15.3409 39.7571 14.9886C39.5829 14.6326 39.4957 14.2424 39.4957 13.8182ZM40.6548 13.2045V13.8182C40.6548 14.1705 40.7382 14.4867 40.9048 14.767C41.0715 15.0436 41.3594 15.1818 41.7685 15.1818C42.1662 15.1818 42.4465 15.0436 42.6094 14.767C42.776 14.4867 42.8594 14.1705 42.8594 13.8182V13.2045C42.8594 12.8523 42.7798 12.5379 42.6207 12.2614C42.4616 11.9811 42.1776 11.8409 41.7685 11.8409C41.3707 11.8409 41.0848 11.9811 40.9105 12.2614C40.7401 12.5379 40.6548 12.8523 40.6548 13.2045ZM33.7003 7.15909V6.54545C33.7003 6.12121 33.7874 5.73295 33.9616 5.38068C34.1397 5.02462 34.3973 4.74053 34.7344 4.52841C35.0753 4.3125 35.4882 4.20455 35.973 4.20455C36.4654 4.20455 36.8783 4.3125 37.2116 4.52841C37.545 4.74053 37.7969 5.02462 37.9673 5.38068C38.1378 5.73295 38.223 6.12121 38.223 6.54545V7.15909C38.223 7.58333 38.1359 7.97348 37.9616 8.32955C37.7912 8.68182 37.5374 8.96591 37.2003 9.18182C36.867 9.39394 36.4579 9.5 35.973 9.5C35.4806 9.5 35.0658 9.39394 34.7287 9.18182C34.3916 8.96591 34.1359 8.68182 33.9616 8.32955C33.7874 7.97348 33.7003 7.58333 33.7003 7.15909ZM34.8594 6.54545V7.15909C34.8594 7.51136 34.9427 7.82765 35.1094 8.10795C35.276 8.38447 35.5639 8.52273 35.973 8.52273C36.3707 8.52273 36.651 8.38447 36.8139 8.10795C36.9806 7.82765 37.0639 7.51136 37.0639 7.15909V6.54545C37.0639 6.19318 36.9844 5.87879 36.8253 5.60227C36.6662 5.32197 36.3821 5.18182 35.973 5.18182C35.5753 5.18182 35.2893 5.32197 35.1151 5.60227C34.9446 5.87879 34.8594 6.19318 34.8594 6.54545ZM34.1321 16L42.1321 4.36364H43.4276L35.4276 16H34.1321Z" fill="#FA6338"/>
</svg>
