<svg width="173" height="48" viewBox="0 0 173 48" fill="none" xmlns="http://www.w3.org/2000/svg">
<path d="M42.5781 15.5078C42.5781 14.6484 43.0078 14.2188 43.8672 14.2188H56.7578C57.6172 14.2188 58.0469 14.6484 58.0469 15.5078C58.0469 16.3672 57.6172 16.7969 56.7578 16.7969H51.6016V38.7109C51.6016 39.5703 51.1719 40 50.3125 40C49.4531 40 49.0234 39.5703 49.0234 38.7109V16.7969H43.8672C43.0078 16.7969 42.5781 16.3672 42.5781 15.5078ZM63.2031 23.2422C63.2031 22.3828 63.6328 21.9531 64.4922 21.9531H72.2266C73.0859 21.9531 73.5156 22.3828 73.5156 23.2422V25.8203C73.5156 26.6797 73.0859 27.1094 72.2266 27.1094C71.3672 27.1094 70.9375 26.6797 70.9375 25.8203V24.5312H65.7812V38.7109C65.7812 39.5703 65.3516 40 64.4922 40C63.6328 40 63.2031 39.5703 63.2031 38.7109V23.2422ZM85.1172 24.5312C84.0495 24.5312 83.138 24.9089 82.3828 25.6641C81.6276 26.4193 81.25 27.3307 81.25 28.3984V29.6875H88.9844V28.3984C88.9844 27.3307 88.6068 26.4193 87.8516 25.6641C87.0964 24.9089 86.1849 24.5312 85.1172 24.5312ZM81.25 32.2656V34.8438C81.25 35.5469 81.5039 36.1523 82.0117 36.6602C82.5195 37.168 83.125 37.4219 83.8281 37.4219H90.2734C91.1328 37.4219 91.5625 37.8516 91.5625 38.7109C91.5625 39.5703 91.1328 40 90.2734 40H83.8281C82.3828 40 81.1589 39.5052 80.1562 38.5156C79.1667 37.513 78.6719 36.2891 78.6719 34.8438V28.3984C78.6719 26.6146 79.2969 25.0977 80.5469 23.8477C81.8099 22.5846 83.3333 21.9531 85.1172 21.9531C86.9271 21.9531 88.4505 22.5781 89.6875 23.8281C90.9375 25.0651 91.5625 26.5885 91.5625 28.3984V32.2656H81.25ZM96.7188 38.7109V23.2422C96.7188 22.3828 97.1484 21.9531 98.0078 21.9531H104.453C105.898 21.9531 107.116 22.4544 108.105 23.457C109.108 24.4466 109.609 25.6641 109.609 27.1094V38.7109C109.609 39.5703 109.18 40 108.32 40C107.461 40 107.031 39.5703 107.031 38.7109V27.1094C107.031 26.3802 106.784 25.7682 106.289 25.2734C105.794 24.7786 105.182 24.5312 104.453 24.5312H99.2969V38.7109C99.2969 39.5703 98.8672 40 98.0078 40C97.1484 40 96.7188 39.5703 96.7188 38.7109ZM114.766 27.1094C114.766 26.1719 114.993 25.306 115.449 24.5117C116.426 22.806 117.917 21.9531 119.922 21.9531H125.078V15.5078C125.078 14.6484 125.508 14.2188 126.367 14.2188C127.227 14.2188 127.656 14.6484 127.656 15.5078V38.7109C127.656 39.5703 127.227 40 126.367 40H119.922C118.477 40 117.253 39.5052 116.25 38.5156C115.26 37.513 114.766 36.2891 114.766 34.8438V27.1094ZM119.922 24.5312C119.206 24.5312 118.594 24.7852 118.086 25.293C117.591 25.7878 117.344 26.3932 117.344 27.1094V34.8438C117.344 35.5469 117.598 36.1523 118.105 36.6602C118.613 37.168 119.219 37.4219 119.922 37.4219H125.078V24.5312H119.922ZM132.812 23.2422C132.812 22.3828 133.242 21.9531 134.102 21.9531C134.961 21.9531 135.391 22.3828 135.391 23.2422V38.7109C135.391 39.5703 134.961 40 134.102 40C133.242 40 132.812 39.5703 132.812 38.7109V23.2422ZM132.812 16.7969V15.5078C132.812 14.6484 133.242 14.2188 134.102 14.2188C134.961 14.2188 135.391 14.6484 135.391 15.5078V16.7969C135.391 17.6562 134.961 18.0859 134.102 18.0859C133.242 18.0859 132.812 17.6562 132.812 16.7969ZM141.836 21.9531H143.125V19.375C143.125 17.9297 143.626 16.7122 144.629 15.7227C145.632 14.7201 146.849 14.2188 148.281 14.2188H149.57C150.43 14.2188 150.859 14.6484 150.859 15.5078C150.859 16.3672 150.43 16.7969 149.57 16.7969H148.281C147.565 16.7969 146.953 17.0508 146.445 17.5586C145.951 18.0534 145.703 18.6589 145.703 19.375V21.9531H149.57C150.43 21.9531 150.859 22.3828 150.859 23.2422C150.859 24.1016 150.43 24.5312 149.57 24.5312H145.703V38.7109C145.703 39.5703 145.273 40 144.414 40C143.555 40 143.125 39.5703 143.125 38.7109V24.5312H141.836C140.977 24.5312 140.547 24.1016 140.547 23.2422C140.547 22.3828 140.977 21.9531 141.836 21.9531ZM158.945 45.1562L161.094 38.7109L156.094 23.6523C156.042 23.4961 156.016 23.3594 156.016 23.2422C156.016 22.3828 156.445 21.9531 157.305 21.9531C157.93 21.9531 158.34 22.2461 158.535 22.832L162.461 34.6094L166.387 22.832C166.582 22.2461 166.992 21.9531 167.617 21.9531C168.477 21.9531 168.906 22.3828 168.906 23.2422C168.906 23.3594 168.88 23.4961 168.828 23.6523L161.113 46.8555C160.918 47.4414 160.508 47.7344 159.883 47.7344H157.285C156.426 47.7344 155.996 47.3047 155.996 46.4453C155.996 45.7552 156.354 45.3385 157.07 45.1953C157.188 45.1693 157.812 45.1562 158.945 45.1562Z" fill="black"/>
<path d="M2.42566 32.1386C5.06291 38.1933 11.3629 40.2116 14.2931 40.7882H16.0513C16.0513 40.7882 20.4467 40.3557 23.0839 37.7608C25.2816 36.0309 27.7461 31.7061 28.1856 29.9762C28.6252 28.2463 29.677 24.3539 28.3584 20.4616C27.0397 16.5693 23.6961 11.3795 23.6961 11.3795C23.6961 11.3795 24.5752 16.2527 24.5752 17.8667C24.5752 20.0291 22.6443 25.6514 22.6443 25.6514C22.6443 25.6514 23.6961 17.0018 20.1798 15.2719C17.3699 13.5419 16.4908 10.5146 16.4908 8.78465C16.4908 7.05473 16.4908 4.45984 18.8612 1C13.5868 1.43248 9.35121 7.48721 8.31233 9.21713C7.27345 10.9471 6.38146 17.0018 7.26054 20.8941C5.06285 17.8667 4.62331 13.5419 4.62331 13.5419C4.62331 13.5419 1.98611 18.5876 1.54658 20.0292C1.10704 21.3266 0.235551 27.1104 2.42566 32.1386Z" fill="#FF0000" stroke="#FF0000" stroke-width="0.5"/>
<path d="M22.9608 35.1471C21.3048 39.0959 17.349 40.4121 15.5091 40.7882H14.4051C14.4051 40.7882 11.6452 40.5061 9.98924 38.8138C8.60929 37.6856 7.0618 34.8651 6.78581 33.7369C6.50982 32.6087 5.84939 30.0702 6.67736 27.5317C8.71634 22.2533 9.60482 21.6086 9.60482 21.6086C9.60482 21.6086 9.05284 23.98 9.05284 25.8394C9.05284 27.2497 10.2653 30.9164 10.2653 30.9164C10.2653 30.9164 9.60482 25.2753 11.8127 24.1471C13.5771 23.0189 14.1291 21.0445 14.1291 19.9163C14.1291 18.7881 14.1291 17.0958 12.6407 14.8394C15.9526 15.1214 19.2645 20.1984 19.2645 20.1984C20.3684 22.1727 20.4769 25.2753 19.9249 27.8138C21.3049 25.8394 21.5808 23.0189 21.5808 23.0189C21.5808 23.0189 23.2368 26.3095 23.5128 27.2497C23.7887 28.0958 24.336 31.8679 22.9608 35.1471Z" fill="#FF5C00" stroke="#FF5C00" stroke-width="0.5"/>
<path d="M10.2829 37.5916C11.1937 39.8292 13.3694 40.5751 14.3813 40.7882H14.9885C14.9885 40.7882 16.5065 40.6284 17.4172 39.6694C18.1762 39.0301 19.0273 37.4318 19.1791 36.7925C19.3309 36.1531 19.6941 34.7147 19.2388 33.2762C18.1173 30.2851 17.6287 29.9198 17.6287 29.9198C17.6287 29.9198 17.9322 31.2636 17.9322 32.3172C17.9322 33.1164 17.2654 35.1942 17.2654 35.1942C17.2654 35.1942 17.6287 31.9976 16.4143 31.3582C15.4439 30.7189 15.1403 29.6001 15.1403 28.9608C15.1403 28.3215 15.1403 27.3625 15.9589 26.0839C14.1374 26.2437 12.3158 29.1206 12.3158 29.1206C11.7087 30.2394 11.649 31.9976 11.9526 33.436C11.1936 32.3172 11.0418 30.7189 11.0418 30.7189C11.0418 30.7189 10.1311 32.5836 9.97929 33.1164C9.82749 33.5959 9.52652 35.7334 10.2829 37.5916Z" fill="#FFC700" stroke="#FFC700" stroke-width="0.5"/>
<path d="M15.065 41V11.3795H1.87891H28.2511" stroke="black" stroke-width="2"/>
<path d="M15.065 41V11.3795H1.87891H28.2511" stroke="white" stroke-width="0.5"/>
</svg>
