<svg width="55" height="55" viewBox="0 0 55 55" fill="none" xmlns="http://www.w3.org/2000/svg">
<circle cx="27.5" cy="27.5" r="27.5" fill="white"/>
<path d="M22.5116 45C22.1705 45 22 44.8284 22 44.4853C22 44.348 22.0171 44.1593 22.0512 43.9191C22.0853 43.6446 22.1705 43.4044 22.307 43.1985C23.5349 43.0613 24.4388 42.7696 25.0186 42.3235C25.5985 41.8774 25.9225 41.2255 25.9907 40.3676C26.0248 39.9216 26.0589 39.2181 26.093 38.2574C26.1271 37.2623 26.1442 36.1471 26.1442 34.9118C26.1783 33.6422 26.1953 32.3897 26.1953 31.1544C26.1953 30.0221 26.1783 28.9926 26.1442 28.0662C26.1442 27.1054 26.1271 26.402 26.093 25.9559C26.0589 25.2696 25.9225 24.7721 25.6837 24.4632C25.4791 24.1544 25.0868 23.9657 24.507 23.8971L22.614 23.6912C22.3752 23.6912 22.2558 23.5539 22.2558 23.2794C22.2558 22.7647 22.4264 22.3015 22.7674 21.8897C23.3132 21.7181 23.9953 21.5809 24.814 21.4779C25.6326 21.375 26.3488 21.3235 26.9628 21.3235C27.7132 21.3235 28.2419 21.5123 28.5488 21.8897C28.8558 22.2328 29.0093 22.8162 29.0093 23.6397C28.9752 25.0123 28.9411 26.6936 28.907 28.6838C28.907 30.6397 28.907 32.527 28.907 34.3456C28.907 35.8897 28.907 37.2279 28.907 38.3603C28.9411 39.4926 28.9752 40.5049 29.0093 41.3971C29.0775 42.2206 29.4186 42.6838 30.0326 42.7868C30.2031 42.8211 30.476 42.8554 30.8512 42.8897C31.2605 42.8897 31.6698 42.9069 32.0791 42.9412C32.5225 42.9412 32.8295 42.9412 33 42.9412C33 43.1127 32.9829 43.3358 32.9488 43.6103C32.9488 43.8848 32.9147 44.1078 32.8465 44.2794C32.7442 44.6225 32.6248 44.8284 32.4884 44.8971C32.3519 44.9657 32.2496 45 32.1814 45H22.5116ZM26.6558 15.4044C25.8372 15.4044 25.155 15.1471 24.6093 14.6324C24.0636 14.1176 23.7907 13.5 23.7907 12.7794C23.7907 11.9902 24.0636 11.3382 24.6093 10.8235C25.155 10.2745 25.8372 10 26.6558 10C27.4403 10 28.0884 10.2745 28.6 10.8235C29.1457 11.3382 29.4186 11.9902 29.4186 12.7794C29.4186 13.5 29.1457 14.1176 28.6 14.6324C28.0884 15.1471 27.4403 15.4044 26.6558 15.4044Z" fill="#73BAEB"/>
</svg>
