<svg width="32" height="36" viewBox="0 0 32 36" fill="none" xmlns="http://www.w3.org/2000/svg">
<path d="M23.5 12.3833C22.8167 12.3833 22.25 11.8167 22.25 11.1333V8.83333C22.25 7.08333 21.5 5.38333 20.2 4.2C18.8833 3 17.1833 2.45 15.3833 2.61667C12.3833 2.9 9.75 5.96667 9.75 9.16667V10.7833C9.75 11.4667 9.18333 12.0333 8.5 12.0333C7.81667 12.0333 7.25 11.4667 7.25 10.7833V9.15C7.25 4.66667 10.8667 0.533333 15.15 0.116666C17.65 -0.116667 20.05 0.666666 21.8833 2.35C23.7 4 24.75 6.36667 24.75 8.83333V11.1333C24.75 11.8167 24.1833 12.3833 23.5 12.3833Z" fill="black"/>
<path d="M20.9997 35.9167H10.9997C3.2997 35.9167 1.86636 32.3333 1.4997 28.85L0.249697 18.8667C0.0663637 17.0667 -0.000302728 14.4833 1.7497 12.55C3.2497 10.8833 5.73303 10.0833 9.33303 10.0833H22.6664C26.283 10.0833 28.7664 10.9 30.2497 12.55C31.983 14.4833 31.933 17.0667 31.7497 18.8333L30.4997 28.85C30.133 32.3333 28.6997 35.9167 20.9997 35.9167ZM9.33303 12.5833C6.51636 12.5833 4.58303 13.1333 3.5997 14.2333C2.78303 15.1333 2.51636 16.5167 2.73303 18.5833L3.98303 28.5667C4.26636 31.2333 4.9997 33.4333 10.9997 33.4333H20.9997C26.9997 33.4333 27.733 31.25 28.0164 28.6L29.2664 18.5833C29.483 16.55 29.2164 15.1667 28.3997 14.25C27.4164 13.1333 25.483 12.5833 22.6664 12.5833H9.33303Z" fill="black"/>
<path d="M21.699 19.9167C20.7656 19.9167 20.0156 19.1667 20.0156 18.25C20.0156 17.3333 20.7656 16.5833 21.6823 16.5833C22.599 16.5833 23.349 17.3333 23.349 18.25C23.349 19.1667 22.6156 19.9167 21.699 19.9167Z" fill="black"/>
<path d="M10.0329 19.9167C9.09961 19.9167 8.34961 19.1667 8.34961 18.25C8.34961 17.3333 9.09961 16.5833 10.0163 16.5833C10.9329 16.5833 11.6829 17.3333 11.6829 18.25C11.6829 19.1667 10.9496 19.9167 10.0329 19.9167Z" fill="black"/>
</svg>
